<mxfile host="app.diagrams.net" modified="2024-04-10T10:47:17.959Z" agent="Mozilla/5.0 (Macintosh; Intel Mac OS X 10_15_7) AppleWebKit/537.36 (KHTML, like Gecko) Chrome/119.0.0.0 Safari/537.36" etag="Pmzva0rTisM7CNSOPeCx" version="24.2.3" type="github">
  <diagram name="第 1 页" id="Rky6J8aVOtaM4SKm8ooS">
    <mxGraphModel dx="1434" dy="761" grid="1" gridSize="10" guides="1" tooltips="1" connect="1" arrows="1" fold="1" page="1" pageScale="1" pageWidth="827" pageHeight="1169" math="0" shadow="0">
      <root>
        <mxCell id="0" />
        <mxCell id="1" parent="0" />
        <mxCell id="BboYGbF3jUrgFgIBSQP9-1" value="渲染三方协议页面&lt;div&gt;（服务端输出到webveiw）&lt;/div&gt;" style="rounded=1;whiteSpace=wrap;html=1;" vertex="1" parent="1">
          <mxGeometry x="270" y="130" width="120" height="70" as="geometry" />
        </mxCell>
        <mxCell id="BboYGbF3jUrgFgIBSQP9-2" value="" style="endArrow=classic;html=1;rounded=0;exitX=0.5;exitY=1;exitDx=0;exitDy=0;" edge="1" parent="1" source="BboYGbF3jUrgFgIBSQP9-1">
          <mxGeometry width="50" height="50" relative="1" as="geometry">
            <mxPoint x="390" y="420" as="sourcePoint" />
            <mxPoint x="330" y="240" as="targetPoint" />
          </mxGeometry>
        </mxCell>
        <mxCell id="BboYGbF3jUrgFgIBSQP9-4" style="edgeStyle=orthogonalEdgeStyle;rounded=0;orthogonalLoop=1;jettySize=auto;html=1;exitX=0.5;exitY=1;exitDx=0;exitDy=0;" edge="1" parent="1" source="BboYGbF3jUrgFgIBSQP9-3">
          <mxGeometry relative="1" as="geometry">
            <mxPoint x="330" y="370" as="targetPoint" />
          </mxGeometry>
        </mxCell>
        <mxCell id="BboYGbF3jUrgFgIBSQP9-8" value="是" style="edgeLabel;html=1;align=center;verticalAlign=middle;resizable=0;points=[];" vertex="1" connectable="0" parent="BboYGbF3jUrgFgIBSQP9-4">
          <mxGeometry x="-0.208" y="1" relative="1" as="geometry">
            <mxPoint as="offset" />
          </mxGeometry>
        </mxCell>
        <mxCell id="BboYGbF3jUrgFgIBSQP9-6" style="edgeStyle=orthogonalEdgeStyle;rounded=0;orthogonalLoop=1;jettySize=auto;html=1;exitX=0;exitY=0.5;exitDx=0;exitDy=0;entryX=0;entryY=0.5;entryDx=0;entryDy=0;" edge="1" parent="1" source="BboYGbF3jUrgFgIBSQP9-7" target="BboYGbF3jUrgFgIBSQP9-5">
          <mxGeometry relative="1" as="geometry" />
        </mxCell>
        <mxCell id="BboYGbF3jUrgFgIBSQP9-3" value="判断是否弹出三方&lt;div&gt;协议询问弹窗&lt;/div&gt;" style="rhombus;whiteSpace=wrap;html=1;" vertex="1" parent="1">
          <mxGeometry x="260" y="240" width="140" height="80" as="geometry" />
        </mxCell>
        <mxCell id="BboYGbF3jUrgFgIBSQP9-17" style="edgeStyle=orthogonalEdgeStyle;rounded=0;orthogonalLoop=1;jettySize=auto;html=1;exitX=0.5;exitY=1;exitDx=0;exitDy=0;" edge="1" parent="1" source="BboYGbF3jUrgFgIBSQP9-5">
          <mxGeometry relative="1" as="geometry">
            <mxPoint x="330" y="600" as="targetPoint" />
          </mxGeometry>
        </mxCell>
        <mxCell id="BboYGbF3jUrgFgIBSQP9-5" value="请求资源服务器接口获取access_token和openid" style="rounded=0;whiteSpace=wrap;html=1;" vertex="1" parent="1">
          <mxGeometry x="270" y="500" width="120" height="60" as="geometry" />
        </mxCell>
        <mxCell id="BboYGbF3jUrgFgIBSQP9-10" value="" style="edgeStyle=orthogonalEdgeStyle;rounded=0;orthogonalLoop=1;jettySize=auto;html=1;exitX=0;exitY=0.5;exitDx=0;exitDy=0;entryX=0;entryY=0.5;entryDx=0;entryDy=0;" edge="1" parent="1" source="BboYGbF3jUrgFgIBSQP9-3" target="BboYGbF3jUrgFgIBSQP9-7">
          <mxGeometry relative="1" as="geometry">
            <mxPoint x="260" y="280" as="sourcePoint" />
            <mxPoint x="294" y="640" as="targetPoint" />
          </mxGeometry>
        </mxCell>
        <mxCell id="BboYGbF3jUrgFgIBSQP9-7" value="否" style="text;html=1;align=center;verticalAlign=middle;resizable=0;points=[];autosize=1;strokeColor=none;fillColor=none;" vertex="1" parent="1">
          <mxGeometry x="230" y="265" width="40" height="30" as="geometry" />
        </mxCell>
        <mxCell id="BboYGbF3jUrgFgIBSQP9-14" style="edgeStyle=orthogonalEdgeStyle;rounded=0;orthogonalLoop=1;jettySize=auto;html=1;exitX=1;exitY=0.5;exitDx=0;exitDy=0;entryX=0.5;entryY=0;entryDx=0;entryDy=0;" edge="1" parent="1" source="BboYGbF3jUrgFgIBSQP9-11" target="BboYGbF3jUrgFgIBSQP9-21">
          <mxGeometry relative="1" as="geometry">
            <mxPoint x="480" y="410" as="targetPoint" />
          </mxGeometry>
        </mxCell>
        <mxCell id="BboYGbF3jUrgFgIBSQP9-15" value="不同意" style="edgeLabel;html=1;align=center;verticalAlign=middle;resizable=0;points=[];" vertex="1" connectable="0" parent="BboYGbF3jUrgFgIBSQP9-14">
          <mxGeometry x="-0.2749" y="3" relative="1" as="geometry">
            <mxPoint as="offset" />
          </mxGeometry>
        </mxCell>
        <mxCell id="BboYGbF3jUrgFgIBSQP9-11" value="用户选择&amp;nbsp;&lt;div&gt;同意 或 拒绝&lt;/div&gt;" style="rhombus;whiteSpace=wrap;html=1;" vertex="1" parent="1">
          <mxGeometry x="265" y="370" width="130" height="80" as="geometry" />
        </mxCell>
        <mxCell id="BboYGbF3jUrgFgIBSQP9-12" value="" style="endArrow=classic;html=1;rounded=0;exitX=0.5;exitY=1;exitDx=0;exitDy=0;" edge="1" parent="1" source="BboYGbF3jUrgFgIBSQP9-11">
          <mxGeometry width="50" height="50" relative="1" as="geometry">
            <mxPoint x="390" y="420" as="sourcePoint" />
            <mxPoint x="330" y="500" as="targetPoint" />
          </mxGeometry>
        </mxCell>
        <mxCell id="BboYGbF3jUrgFgIBSQP9-13" value="同意" style="edgeLabel;html=1;align=center;verticalAlign=middle;resizable=0;points=[];" vertex="1" connectable="0" parent="BboYGbF3jUrgFgIBSQP9-12">
          <mxGeometry x="-0.4" relative="1" as="geometry">
            <mxPoint as="offset" />
          </mxGeometry>
        </mxCell>
        <mxCell id="BboYGbF3jUrgFgIBSQP9-18" value="跳转到三方链接" style="whiteSpace=wrap;html=1;" vertex="1" parent="1">
          <mxGeometry x="270" y="600" width="120" height="60" as="geometry" />
        </mxCell>
        <mxCell id="BboYGbF3jUrgFgIBSQP9-19" style="edgeStyle=orthogonalEdgeStyle;rounded=0;orthogonalLoop=1;jettySize=auto;html=1;exitX=0.5;exitY=1;exitDx=0;exitDy=0;" edge="1" parent="1">
          <mxGeometry relative="1" as="geometry">
            <mxPoint x="329.5" y="700" as="targetPoint" />
            <mxPoint x="329.5" y="660" as="sourcePoint" />
            <Array as="points">
              <mxPoint x="329.5" y="681" />
              <mxPoint x="330.5" y="681" />
              <mxPoint x="330.5" y="680" />
              <mxPoint x="329.5" y="680" />
            </Array>
          </mxGeometry>
        </mxCell>
        <mxCell id="BboYGbF3jUrgFgIBSQP9-20" value="结束" style="rounded=1;whiteSpace=wrap;html=1;" vertex="1" parent="1">
          <mxGeometry x="270" y="700" width="120" height="60" as="geometry" />
        </mxCell>
        <mxCell id="BboYGbF3jUrgFgIBSQP9-24" style="edgeStyle=orthogonalEdgeStyle;rounded=0;orthogonalLoop=1;jettySize=auto;html=1;exitX=0.5;exitY=1;exitDx=0;exitDy=0;entryX=1;entryY=0.5;entryDx=0;entryDy=0;" edge="1" parent="1" source="BboYGbF3jUrgFgIBSQP9-21" target="BboYGbF3jUrgFgIBSQP9-20">
          <mxGeometry relative="1" as="geometry" />
        </mxCell>
        <mxCell id="BboYGbF3jUrgFgIBSQP9-21" value="返回主App" style="whiteSpace=wrap;html=1;" vertex="1" parent="1">
          <mxGeometry x="430" y="500" width="120" height="60" as="geometry" />
        </mxCell>
      </root>
    </mxGraphModel>
  </diagram>
</mxfile>
